<?xml version="1.0" encoding="UTF-8" standalone="no"?>
<!-- Created with Inkscape (http://www.inkscape.org/) -->

<svg
   width="21.056999mm"
   height="11.756mm"
   viewBox="0 0 21.056999 11.755999"
   version="1.1"
   id="svg1"
   sodipodi:docname="favicon.svg"
   inkscape:version="1.4.3 (0d15f75042, 2025-12-25)"
   xml:space="preserve"
   inkscape:export-filename="favicon.png"
   inkscape:export-xdpi="96"
   inkscape:export-ydpi="96"
   xmlns:inkscape="http://www.inkscape.org/namespaces/inkscape"
   xmlns:sodipodi="http://sodipodi.sourceforge.net/DTD/sodipodi-0.dtd"
   xmlns="http://www.w3.org/2000/svg"
   xmlns:svg="http://www.w3.org/2000/svg"><sodipodi:namedview
     id="namedview1"
     pagecolor="#ffffff"
     bordercolor="#cccccc"
     borderopacity="1"
     inkscape:showpageshadow="0"
     inkscape:pageopacity="1"
     inkscape:pagecheckerboard="0"
     inkscape:deskcolor="#d1d1d1"
     inkscape:document-units="mm"
     inkscape:zoom="5.8511223"
     inkscape:cx="47.170438"
     inkscape:cy="12.561693"
     inkscape:window-width="1920"
     inkscape:window-height="1008"
     inkscape:window-x="1920"
     inkscape:window-y="44"
     inkscape:window-maximized="1"
     inkscape:current-layer="g6"
     showguides="true"><sodipodi:guide
       position="15.437268,1.3157987"
       orientation="1,0"
       id="guide6"
       inkscape:locked="false" /></sodipodi:namedview><defs
     id="defs1"><inkscape:path-effect
       effect="bspline"
       id="path-effect10"
       is_visible="true"
       lpeversion="1.3"
       weight="33.333333"
       steps="2"
       helper_size="0"
       apply_no_weight="true"
       apply_with_weight="true"
       only_selected="false"
       uniform="false" /><inkscape:path-effect
       effect="bspline"
       id="path-effect9"
       is_visible="true"
       lpeversion="1.3"
       weight="33.333333"
       steps="2"
       helper_size="0"
       apply_no_weight="true"
       apply_with_weight="true"
       only_selected="false"
       uniform="false" /><inkscape:path-effect
       effect="bspline"
       id="path-effect8"
       is_visible="true"
       lpeversion="1.3"
       weight="33.333333"
       steps="2"
       helper_size="0"
       apply_no_weight="true"
       apply_with_weight="true"
       only_selected="false"
       uniform="false" /><inkscape:path-effect
       effect="bspline"
       id="path-effect7"
       is_visible="true"
       lpeversion="1.3"
       weight="33.333333"
       steps="2"
       helper_size="0"
       apply_no_weight="true"
       apply_with_weight="true"
       only_selected="false"
       uniform="false" /><inkscape:path-effect
       effect="bspline"
       id="path-effect6"
       is_visible="true"
       lpeversion="1.3"
       weight="33.333333"
       steps="2"
       helper_size="0"
       apply_no_weight="true"
       apply_with_weight="true"
       only_selected="false"
       uniform="false" /><inkscape:path-effect
       effect="bspline"
       id="path-effect5"
       is_visible="true"
       lpeversion="1.3"
       weight="33.333333"
       steps="2"
       helper_size="0"
       apply_no_weight="true"
       apply_with_weight="true"
       only_selected="false"
       uniform="false" /><inkscape:path-effect
       effect="bspline"
       id="path-effect4"
       is_visible="true"
       lpeversion="1.3"
       weight="33.333333"
       steps="2"
       helper_size="0"
       apply_no_weight="true"
       apply_with_weight="true"
       only_selected="false"
       uniform="false" /><inkscape:path-effect
       effect="bspline"
       id="path-effect3"
       is_visible="true"
       lpeversion="1.3"
       weight="33.333333"
       steps="2"
       helper_size="0"
       apply_no_weight="true"
       apply_with_weight="true"
       only_selected="false"
       uniform="false" /><inkscape:path-effect
       effect="bspline"
       id="path-effect4-3"
       is_visible="true"
       lpeversion="1.3"
       weight="33.333333"
       steps="2"
       helper_size="0"
       apply_no_weight="true"
       apply_with_weight="true"
       only_selected="false"
       uniform="false" /><inkscape:path-effect
       effect="bspline"
       id="path-effect4-9"
       is_visible="true"
       lpeversion="1.3"
       weight="33.333333"
       steps="2"
       helper_size="0"
       apply_no_weight="true"
       apply_with_weight="true"
       only_selected="false"
       uniform="false" /></defs><path
     style="fill:#ff7300;stroke:#640000;stroke-width:1;stroke-linecap:round;stroke-linejoin:bevel;paint-order:markers stroke fill;fill-opacity:1;stroke-opacity:1"
     d="M 3.5233328,1.865146 C 3.1427375,1.9365954 2.9166412,2.2679075 2.87896,2.7314107 c -0.037681,0.4635031 0.1130467,1.0591736 0.2713157,1.6961659 0.158269,0.6369923 0.3240696,1.3152675 0.2750794,2.08375 -0.04899,0.7684825 -0.3127639,1.6271249 -0.3956648,2.1961364 -0.082901,0.5690116 0.015072,0.8483643 0.1997201,1.0521053 0.184648,0.2037411 0.4559581,0.3318597 0.7256241,0.2753327 0.2696661,-0.056526 0.5376722,-0.2976906 0.8353688,-0.3504449 0.2976966,-0.052754 0.6250654,0.082901 0.9357186,0.1281195 0.3106532,0.045219 0.6045724,5e-7 0.9512573,-0.1509861 C 7.0240642,9.5106029 7.4234925,9.2538594 7.6872727,8.948626 7.951053,8.6433926 8.0791716,8.2896886 8.3316495,8.3653122 c 0.2524779,0.075624 0.6292973,0.5805616 0.9646764,0.9084027 0.3353791,0.3278412 0.629298,0.4785689 0.9098701,0.5313242 0.280573,0.052755 0.547782,0.00754 0.766343,-0.1168374 0.218561,-0.1243745 0.388463,-0.3278962 0.689586,-0.3655777 0.301122,-0.037681 0.733445,0.090476 1.14419,0.1545564 0.410746,0.06408 0.79989,0.06408 1.062296,-0.026613 0.262406,-0.090694 0.39806,-0.2720733 0.638383,-0.288915 0.240322,-0.016842 0.585295,0.130852 0.996041,0.1308504 0.410747,-1.5e-6 0.88724,-0.1476951 1.306372,-0.4511593 0.419132,-0.3034641 0.780879,-0.7626777 0.988134,-1.2183898 0.207256,-0.4557121 0.26001,-0.9078957 0.194136,-1.3412508 -0.06587,-0.4333551 -0.250373,-0.8478567 -0.27675,-1.2774439 -0.02638,-0.4295873 0.105367,-0.8742343 0.105366,-1.2509787 -2e-6,-0.3767443 -0.131745,-0.6855648 -0.550881,-0.9493458 -0.419135,-0.263781 -1.125632,-0.4825079 -1.619551,-0.4825058 -0.493919,2.1e-6 -0.775235,0.218729 -0.977873,0.5465729 -0.202637,0.327844 -0.326585,0.7647829 -0.546831,0.7006309 C 13.904911,3.50448 13.588383,2.939251 13.275613,2.649094 12.962844,2.3589369 12.653852,2.3438642 12.401376,2.456 12.1489,2.5681359 11.952954,2.8074709 11.674098,2.7622486 11.395242,2.7170262 11.033496,2.3872544 10.652896,2.2961296 10.272297,2.2050048 9.8728682,2.352528 9.548472,2.7255927 9.2240757,3.0986574 8.9747296,3.6972368 8.6581911,3.8947872 8.3416525,4.0923375 7.9579419,3.8888551 7.5864934,3.5195592 7.215045,3.1502634 6.8558808,2.6151796 6.4225247,2.3627058 5.9891686,2.110232 5.4816477,2.1403775 4.9603298,2.061242 4.4390119,1.9821065 3.9039281,1.7936967 3.5233328,1.865146 Z"
     id="path9"
     inkscape:path-effect="#path-effect10"
     inkscape:original-d="M 3.3688337,1.6052832 C 3.1427375,1.9365954 2.9166412,2.2679075 2.690545,2.5992197 2.8412789,3.1949138 2.9920067,3.7905843 3.1427375,4.3862667 3.3085447,5.0645689 3.4743453,5.7428441 3.6401491,6.4211326 3.3763651,7.2798092 3.1125914,8.1384515 2.8488124,8.9971106 2.9467894,9.2764746 3.0447625,9.5558273 3.1427375,9.8351857 3.4140584,9.9633094 3.6853685,10.091428 3.9566839,10.219549 4.2247007,9.9783751 4.4927067,9.7372105 4.760718,9.4960412 5.0880999,9.6317018 5.4154686,9.7673569 5.7428441,9.9030146 6.0367751,9.8577944 6.3306943,9.812576 6.6246194,9.7673569 7.0240641,9.5106028 7.4234925,9.2538594 7.8229292,8.9971106 7.9510529,8.6433926 8.0791716,8.2896886 8.2072929,7.9359775 8.5841275,8.4409358 8.9609468,8.9458738 9.3377738,9.4508221 9.631705,9.601556 9.925624,9.7522836 10.219549,9.9030146 c 0.26722,-0.04522 0.534429,-0.090439 0.801643,-0.1356577 0.169908,-0.2035299 0.33981,-0.4070514 0.509715,-0.6105771 0.43234,0.1281628 0.864663,0.2563204 1.296995,0.3844808 0.389159,0 0.778303,0 1.167454,0 0.135661,-0.1813869 0.271316,-0.3627665 0.406973,-0.54415 0.344987,0.1476997 0.68996,0.2953933 1.03494,0.4430901 C 15.913782,9.292501 16.390275,9.1448074 16.866778,8.9971106 17.228539,8.5378789 17.590286,8.0786654 17.95204,7.6194427 18.004797,7.1672412 18.057552,6.7150577 18.110307,6.2628652 17.925802,5.8483473 17.741304,5.4338457 17.556802,5.019336 17.688551,4.5746714 17.820294,4.1300243 17.95204,3.6853685 17.820291,3.3765357 17.688548,3.0677151 17.556802,2.7588887 16.850277,2.540153 16.14378,2.3214261 15.437269,2.1026949 15.155942,2.3214305 14.874626,2.5401574 14.593304,2.7588887 14.469351,3.1958452 14.345403,3.6327842 14.221452,4.0697319 13.904911,3.50448 13.588383,2.9392509 13.271848,2.3740103 12.962844,2.3589369 12.653852,2.3438642 12.344854,2.3287911 12.1489,2.568136 11.952954,2.8074712 11.757003,3.0468115 11.395242,2.7170263 11.033496,2.3872542 10.671742,2.0574756 10.272297,2.2050047 9.8728682,2.3525279 9.4734318,2.500054 9.2240758,3.0986574 8.9747298,3.6972369 8.7253785,4.2958281 8.3416525,4.0923376 7.9579419,3.888855 7.5742235,3.6853685 7.2150451,3.1502633 6.8558809,2.6151796 6.4967095,2.0800852 5.9891686,2.110232 5.4816477,2.1403776 4.9741169,2.1705237 4.4390119,1.9821064 3.9039281,1.7936967 3.3688337,1.6052832 Z" /><g
     inkscape:label="Layer 1"
     inkscape:groupmode="layer"
     id="layer1"
     transform="translate(-5.8259944,-4.3089714)" /><g
     id="g6"
     transform="translate(3.5001974,2.500054)"><path
       style="fill:none;stroke:#00bcab;stroke-width:1;stroke-linecap:round;stroke-linejoin:bevel;paint-order:markers stroke fill;stroke-opacity:1"
       d="M 11.411302,6.2610065 C 10.879626,5.4849725 10.34795,4.7089385 10.393873,3.7826677 10.439796,2.8563969 11.063293,1.7799323 11.686802,0.70344635"
       id="path4"
       inkscape:path-effect="#path-effect4"
       inkscape:original-d="M 11.411302,6.2610065 C 10.879626,5.4849725 10.34795,4.7089385 9.8162741,3.9329047 10.439796,2.8563969 11.063293,1.7799324 11.686802,0.70344635"
       transform="matrix(-0.54905197,0,0,1.0302447,6.6911876,-0.20959952)" /><path
       style="fill:none;stroke:#000086;stroke-width:1;stroke-linecap:round;stroke-linejoin:bevel;paint-order:markers stroke fill;stroke-opacity:1"
       d="M 11.411302,6.2610065 C 10.879626,5.4849725 10.34795,4.7089385 10.393873,3.7826677 10.439796,2.8563969 11.063293,1.7799323 11.686802,0.70344635"
       id="path4-9"
       inkscape:path-effect="#path-effect4-9"
       inkscape:original-d="M 11.411302,6.2610065 C 10.879626,5.4849725 10.34795,4.7089385 9.8162741,3.9329047 10.439796,2.8563969 11.063293,1.7799324 11.686802,0.70344635"
       transform="translate(-4.6658076,-0.10428062)" /><path
       style="fill:none;stroke:#007f00;stroke-width:1;stroke-linecap:round;stroke-linejoin:bevel;paint-order:markers stroke fill;stroke-opacity:1"
       d="M 11.411302,6.2610065 C 10.879626,5.4849725 10.34795,4.7089385 10.393873,3.7826677 10.439796,2.8563969 11.063293,1.7799323 11.686802,0.70344635"
       id="path4-4"
       inkscape:path-effect="#path-effect4-3"
       inkscape:original-d="M 11.411302,6.2610065 C 10.879626,5.4849725 10.34795,4.7089385 9.8162741,3.9329047 10.439796,2.8563969 11.063293,1.7799324 11.686802,0.70344635"
       transform="matrix(-1.6076436,0,0,1,20.743122,-0.10428062)" /><path
       style="fill:none;stroke:#ffbb00;stroke-width:1;stroke-linecap:round;stroke-linejoin:bevel;paint-order:markers stroke fill;stroke-opacity:1"
       d="m 15.826736,5.2228228 c -0.452193,0.6029234 -0.904385,1.2058463 -1.149323,1.9783512 -0.244938,0.7725049 -0.28262,1.7145535 -0.04145,2.3250162 0.241175,0.6104628 0.761186,0.8893088 1.190125,0.9303798 0.42894,0.04107 0.766778,-0.15563 0.964528,-0.4988887 0.19775,-0.3432588 0.255389,-0.8330366 0.08909,-1.1365614 C 16.713415,8.5175951 16.323195,8.4003565 16.092109,8.4483183 15.861024,8.4962801 15.78908,8.7094465 15.717136,8.9226121"
       id="path5"
       inkscape:path-effect="#path-effect5"
       inkscape:original-d="m 15.826736,5.2228228 c -0.452193,0.6029232 -0.904385,1.2058465 -1.356578,1.8087697 -0.03768,0.9420865 -0.07536,1.8841352 -0.113048,2.8262027 0.520032,0.2788578 1.040043,0.5577038 1.560064,0.8365558 0.337858,-0.196711 0.675696,-0.393411 1.013554,-0.590122 0.05764,-0.4898068 0.115281,-0.9795843 0.172923,-1.4693904 -0.390236,-0.1172433 -0.780456,-0.234482 -1.170684,-0.3517232 -0.07194,0.2131658 -0.215831,0.6394967 -0.215831,0.6394967"
       sodipodi:nodetypes="cccccccc"
       transform="translate(-6.4015414,-4.4639881)" /><path
       style="fill:none;stroke:#b80000;stroke-width:1;stroke-linecap:round;stroke-linejoin:bevel;paint-order:markers stroke fill;stroke-opacity:1"
       d="m 19.168913,6.1071934 c -0.623522,-0.1875339 -1.247025,-0.375062 -1.5814,-0.1319817 -0.334376,0.2430804 -0.383694,0.9773854 -0.03531,1.3796906 0.348387,0.4023051 1.094452,0.4725928 1.44351,0.8035102 0.349058,0.3309174 0.301096,0.9224399 -0.0453,1.3594324 -0.346401,0.4369925 -0.991213,0.7194311 -1.636039,1.0018751"
       id="path6"
       inkscape:path-effect="#path-effect6"
       inkscape:original-d="m 19.168913,6.1071934 c -0.623522,-0.1875338 -1.247025,-0.375062 -1.870528,-0.5625902 -0.04796,0.6735067 -0.09592,1.407903 -0.143886,2.1423138 0.746094,0.07029 1.492159,0.1405781 2.238238,0.2108671 -0.04796,0.5915461 -0.09592,1.1830687 -0.143887,1.7746032 -0.644839,0.2824502 -1.289651,0.5648887 -1.934477,0.8473327"
       transform="translate(-5.6783077,-4.8105858)" /></g></svg>
